# xmcd
#
# Track frame offsets: 
#        150
#        13403
#        42262
#        54040
#        67108
#        79504
#        91774
#        104618
#        118084
#        135199
#        146686
#        161041
#        172836
#        185194
#        196515
#        210493
#        222705
#        230823
#
# Disc length: 3245 seconds
#
# Revision: 9
# Processed by: cddbd v1.5.2PL0 Copyright (c) Steve Scherf et al.
# Submitted via: ExactAudioCopy v0.90b4
#
DISCID=000cab12
DTITLE=Stevie Wonder - Early Classics
DYEAR=2000
DGENRE=R&B
TTITLE0=Uptight (Everything's Alright)
TTITLE1=Fingertips (Parts 1 and 2)
TTITLE2=Little Water Boy (with Clarence Paul)
TTITLE3=Music Talk
TTITLE4=Workout Stevie, Workout
TTITLE5=Monkey Talk
TTITLE6=Frankie and Johnny
TTITLE7=Mary Ann
TTITLE8=Blowin' In The Wind (with Clarence Paul)
TTITLE9=Sad Boy
TTITLE10=With A Child's Heart
TTITLE11=I Was Made To Love Her
TTITLE12=Ain't That Love
TTITLE13=My Baby's Gone
TTITLE14=Yester-Me, Yester-You, Yesterday
TTITLE15=Teach Me Tonight (with Levi Stubbs)
TTITLE16=Ebb Tide
TTITLE17=Beyond The Sea
EXTD=
EXTT0=
EXTT1=
EXTT2=
EXTT3=
EXTT4=
EXTT5=
EXTT6=
EXTT7=
EXTT8=
EXTT9=
EXTT10=
EXTT11=
EXTT12=
EXTT13=
EXTT14=
EXTT15=
EXTT16=
EXTT17=
PLAYORDER=
